<svg id="Layer_1" data-name="Layer 1" xmlns="http://www.w3.org/2000/svg" xmlns:xlink="http://www.w3.org/1999/xlink" viewBox="0 0 684.81 476.16"><defs><linearGradient id="linear-gradient" x1="286.87" y1="251.64" x2="317.39" y2="251.64" gradientUnits="userSpaceOnUse"><stop offset="0.12" stop-color="#010101" stop-opacity="0"/><stop offset="0.67" stop-color="#010101" stop-opacity="0.67"/><stop offset="0.95" stop-color="#010101"/></linearGradient><linearGradient id="linear-gradient-2" x1="236.18" y1="257.83" x2="267.71" y2="257.83" xlink:href="#linear-gradient"/><linearGradient id="linear-gradient-3" x1="378.41" y1="375.36" x2="400.98" y2="263.91" gradientUnits="userSpaceOnUse"><stop offset="0" stop-color="#fff" stop-opacity="0"/><stop offset="0.95" stop-color="#fff"/></linearGradient><linearGradient id="linear-gradient-4" x1="558.9" y1="390.28" x2="387.35" y2="459.18" xlink:href="#linear-gradient"/><linearGradient id="linear-gradient-5" x1="91.7" y1="425.97" x2="273.86" y2="445.8" xlink:href="#linear-gradient"/><linearGradient id="linear-gradient-6" x1="474.3" y1="494.9" x2="508.86" y2="450.7" xlink:href="#linear-gradient"/><linearGradient id="linear-gradient-7" x1="257.56" y1="463.08" x2="271.55" y2="316.55" xlink:href="#linear-gradient-3"/><linearGradient id="linear-gradient-8" x1="329.88" y1="347.75" x2="251.69" y2="363.64" xlink:href="#linear-gradient"/><linearGradient id="linear-gradient-9" x1="259.54" y1="365.93" x2="193.47" y2="400.72" xlink:href="#linear-gradient"/><linearGradient id="linear-gradient-10" x1="233.7" y1="384.69" x2="146.24" y2="335.32" xlink:href="#linear-gradient-3"/><linearGradient id="linear-gradient-11" x1="225.9" y1="372.7" x2="242.12" y2="455.92" xlink:href="#linear-gradient"/><linearGradient id="linear-gradient-12" x1="223.02" y1="365.93" x2="78.08" y2="462.56" xlink:href="#linear-gradient"/><linearGradient id="linear-gradient-13" x1="197.68" y1="323.44" x2="221.38" y2="323.44" gradientUnits="userSpaceOnUse"><stop offset="0" stop-color="#e5c6d6"/><stop offset="0.42" stop-color="#ead4d0"/><stop offset="1" stop-color="#f0e9cb"/></linearGradient><linearGradient id="linear-gradient-14" x1="180.78" y1="301.77" x2="193.02" y2="301.77" xlink:href="#linear-gradient-13"/><linearGradient id="linear-gradient-15" x1="190.04" y1="301.34" x2="174.9" y2="305.08" gradientUnits="userSpaceOnUse"><stop offset="0.12" stop-color="#010101" stop-opacity="0"/><stop offset="0.95" stop-color="#010101"/></linearGradient><linearGradient id="linear-gradient-16" x1="260.66" y1="272.89" x2="287.96" y2="272.89" xlink:href="#linear-gradient-13"/><linearGradient id="linear-gradient-17" x1="263.99" y1="287.21" x2="299.68" y2="228.57" xlink:href="#linear-gradient"/><linearGradient id="linear-gradient-18" x1="435.74" y1="346.02" x2="439.03" y2="411.85" xlink:href="#linear-gradient"/><linearGradient id="linear-gradient-19" x1="233.03" y1="292.49" x2="239.11" y2="292.49" xlink:href="#linear-gradient-13"/><linearGradient id="linear-gradient-20" x1="185.79" y1="297.11" x2="234.61" y2="297.11" xlink:href="#linear-gradient-13"/><linearGradient id="linear-gradient-21" x1="383.31" y1="240.99" x2="420.06" y2="240.99" xlink:href="#linear-gradient-13"/><linearGradient id="linear-gradient-22" x1="397.62" y1="256.32" x2="403.96" y2="205.36" xlink:href="#linear-gradient"/><linearGradient id="linear-gradient-23" x1="543.11" y1="251.37" x2="573.89" y2="251.37" xlink:href="#linear-gradient-13"/><linearGradient id="linear-gradient-24" x1="349.16" y1="218.25" x2="403.35" y2="218.25" gradientTransform="translate(-117.31 69.45) rotate(-6.36)" xlink:href="#linear-gradient-13"/><linearGradient id="linear-gradient-25" x1="178.05" y1="276.99" x2="236.76" y2="276.99" xlink:href="#linear-gradient"/><linearGradient id="linear-gradient-26" x1="386.89" y1="511.89" x2="398.88" y2="385.64" xlink:href="#linear-gradient"/><linearGradient id="linear-gradient-27" x1="323.93" y1="429.49" x2="412.06" y2="429.49" xlink:href="#linear-gradient"/><linearGradient id="linear-gradient-28" x1="462.33" y1="476.86" x2="507.94" y2="476.86" xlink:href="#linear-gradient"/><linearGradient id="linear-gradient-29" x1="135.72" y1="454.65" x2="272.69" y2="454.65" xlink:href="#linear-gradient"/><linearGradient id="linear-gradient-30" x1="187.23" y1="485.59" x2="242.81" y2="485.59" xlink:href="#linear-gradient"/><linearGradient id="linear-gradient-31" x1="62.49" y1="579.11" x2="94.47" y2="579.11" gradientTransform="translate(301.2 -103.06) rotate(14.45)" xlink:href="#linear-gradient-13"/><linearGradient id="linear-gradient-32" x1="264.63" y1="465.86" x2="322.66" y2="465.86" xlink:href="#linear-gradient"/><linearGradient id="linear-gradient-33" x1="307.69" y1="502.24" x2="270.07" y2="482.96" xlink:href="#linear-gradient"/><linearGradient id="linear-gradient-34" x1="257.02" y1="485.46" x2="282.38" y2="485.46" xlink:href="#linear-gradient-13"/><linearGradient id="linear-gradient-35" x1="412.27" y1="188.33" x2="417.74" y2="188.33" xlink:href="#linear-gradient-13"/><linearGradient id="linear-gradient-36" x1="355.3" y1="204.64" x2="366.43" y2="204.64" xlink:href="#linear-gradient-13"/><linearGradient id="linear-gradient-37" x1="355.46" y1="199.81" x2="417.19" y2="199.81" xlink:href="#linear-gradient-13"/><linearGradient id="linear-gradient-38" x1="345.39" y1="171.8" x2="412.38" y2="171.8" xlink:href="#linear-gradient"/><linearGradient id="linear-gradient-39" x1="148.68" y1="396.89" x2="170.89" y2="396.89" xlink:href="#linear-gradient-13"/><linearGradient id="linear-gradient-40" x1="227.05" y1="440.08" x2="354.12" y2="440.08" xlink:href="#linear-gradient"/><linearGradient id="linear-gradient-41" x1="376.12" y1="336.63" x2="459.2" y2="336.63" xlink:href="#linear-gradient-13"/><linearGradient id="linear-gradient-42" x1="358.35" y1="328.68" x2="393.14" y2="445.76" gradientUnits="userSpaceOnUse"><stop offset="0.12" stop-color="#010101" stop-opacity="0"/><stop offset="0.45" stop-color="#010101" stop-opacity="0.35"/><stop offset="0.67" stop-color="#010101" stop-opacity="0.67"/><stop offset="0.95" stop-color="#010101"/></linearGradient><linearGradient id="linear-gradient-43" x1="313.82" y1="344.71" x2="384.3" y2="344.71" xlink:href="#linear-gradient-3"/><linearGradient id="linear-gradient-44" x1="217.54" y1="438.8" x2="259.66" y2="438.8" gradientTransform="translate(162.31 -99.98) rotate(8.07)" xlink:href="#linear-gradient-13"/><linearGradient id="linear-gradient-45" x1="326.41" y1="263.18" x2="353.43" y2="263.18" xlink:href="#linear-gradient-42"/><linearGradient id="linear-gradient-46" x1="212.69" y1="395.45" x2="235.98" y2="395.45" gradientTransform="translate(212.78 -126.68) rotate(10.53)" xlink:href="#linear-gradient-13"/><linearGradient id="linear-gradient-47" x1="399.67" y1="305.49" x2="409.9" y2="238.61" gradientTransform="translate(-53.95 30.26) rotate(-2.84)" xlink:href="#linear-gradient"/><linearGradient id="linear-gradient-48" x1="349.48" y1="272.32" x2="392.6" y2="272.32" xlink:href="#linear-gradient-13"/><linearGradient id="linear-gradient-49" x1="340.65" y1="248.46" x2="400.1" y2="248.46" xlink:href="#linear-gradient"/><linearGradient id="linear-gradient-50" x1="365.99" y1="334.48" x2="401.48" y2="322.99" gradientUnits="userSpaceOnUse"><stop offset="0" stop-color="#fff" stop-opacity="0"/><stop offset="0.66" stop-color="#fff"/></linearGradient><linearGradient id="linear-gradient-51" x1="308.25" y1="336.19" x2="335.49" y2="332.39" xlink:href="#linear-gradient-3"/><linearGradient id="linear-gradient-52" x1="434.92" y1="389.94" x2="494.26" y2="389.94" xlink:href="#linear-gradient"/><linearGradient id="linear-gradient-53" x1="274.02" y1="397.07" x2="296.88" y2="397.07" xlink:href="#linear-gradient-13"/><linearGradient id="linear-gradient-54" x1="209.93" y1="394.35" x2="240.19" y2="394.35" xlink:href="#linear-gradient-13"/><linearGradient id="linear-gradient-55" x1="382" y1="417.76" x2="434.96" y2="417.76" xlink:href="#linear-gradient-13"/><linearGradient id="linear-gradient-56" x1="413.25" y1="414.36" x2="452.86" y2="414.36" xlink:href="#linear-gradient-13"/><linearGradient id="linear-gradient-57" x1="344.03" y1="272.46" x2="351.67" y2="272.46" xlink:href="#linear-gradient-13"/><linearGradient id="linear-gradient-58" x1="345.99" y1="273.9" x2="355.22" y2="267.61" xlink:href="#linear-gradient"/><linearGradient id="linear-gradient-59" x1="314.35" y1="203.63" x2="276.97" y2="235.13" xlink:href="#linear-gradient"/><linearGradient id="linear-gradient-60" x1="376.87" y1="318.13" x2="391.44" y2="318.13" xlink:href="#linear-gradient-13"/><linearGradient id="linear-gradient-61" x1="64.76" y1="439.22" x2="140.45" y2="427.73" xlink:href="#linear-gradient"/><linearGradient id="linear-gradient-62" x1="556.07" y1="414.9" x2="670.2" y2="478.24" xlink:href="#linear-gradient"/></defs><title>family 3</title><path d="M672.65,290.1c-12.8,26-34.36,48.63-35.26,78.46-.73,24.23,12.72,46.26,14.57,70.4a76.39,76.39,0,0,1-.6,17.16A100.3,100.3,0,0,1,638.08,493c-19.79,33.54-53.54,53.41-88.08,61.73s-70.14,6.3-105.36,4.27L221.25,546.09c-30.05-1.73-60.31-3.49-89.46-12a214.1,214.1,0,0,1-65.95-32.63,178.74,178.74,0,0,1-34.84-33C18.28,452.63,8.54,434.13,4.1,413.31-5,370.63,10.22,324.46,36.52,292.6c5.86-7.11,12.42-13.88,15.95-22.8,7.42-18.71-.26-40.48.73-61,1.17-23.58,15-45.7,34.15-54.32,14-6.34,29.57-5.69,44.62-4.92,33.19,1.64,77.51,13.63,108.12-3.49,32.89-18.36,57.12-37.93,96.13-33,17.85,2.24,35.18,8.79,53.07,10.35,50.22,4.31,96.61-30.87,146.57-37.68,45.87-6.25,94.67,13.88,123.77,55.09S695.37,243.89,672.65,290.1Z" transform="translate(-1.46 -84.64)" fill="#1963bc" opacity="0.24" style="isolation:isolate"/><path d="M254.88,191.37a26.15,26.15,0,0,0-8.51,7.33c-7.87,11.32-.78,28.44-8.55,39.84-1.9,2.8-4.57,5-6.75,7.59-4.94,5.87-7.22,13.6-7.76,21.25s.51,15.31,1.56,22.9c.29,2.06.63,4.24,2,5.81s3.8,2.28,6,2.76a218,218,0,0,0,60.23,4.54c3.5-.23,7.17-.59,10.09-2.54,6.87-4.56,6.13-14.59,8.08-22.61,1.64-6.75,5.63-12.68,8-19.21,2.75-7.51,3.3-15.61,3.79-23.59.68-11,.59-23.75-7.87-30.83-2.73-2.28-6.06-3.68-9.33-5.06-8.57-3.59-17.73-6.08-26.13-9.75C271.05,186,263.29,186.45,254.88,191.37Z" transform="translate(-1.46 -84.64)" fill="#606161"/><path d="M302.57,215.58s15.17,9.94,14.81,25.81-11.63,43.73-11.63,43.73l-18.88,2.58Z" transform="translate(-1.46 -84.64)" fill="url(#linear-gradient)"/><path d="M249.11,239.6c-2.54,2.13-4.16,5.14-5.54,8.16a83.14,83.14,0,0,0-7.39,30.61l22.85.23a4.44,4.44,0,0,0,2.26-.38,4.37,4.37,0,0,0,1.66-2.49c2.43-6.5,4.82-13.19,4.76-20.12C267.64,246.85,259.56,230.86,249.11,239.6Z" transform="translate(-1.46 -84.64)" fill="url(#linear-gradient-2)"/><path d="M416.7,238.42c8-.16,15.95.41,23.91,1,4.83.35,9.7.71,14.31,2.16a55.39,55.39,0,0,1,10.66,5A241.7,241.7,0,0,1,512,281c2.58,2.44,6,4.86,9.41,5.69s7.53.1,9.72-2.7c1.29-1.65,1.77-3.77,2.36-5.79,1.76-6,5.5-12.33,11.64-13.73,6-1.36,12.19,2.67,15.09,8.07s3.14,11.82,2.76,17.94a114.14,114.14,0,0,1-6.18,29.84c-1.46,4.21-3.27,8.55-6.74,11.34s-8,3.63-12.42,4c-25,1.89-48.8-10.06-71.05-21.69-.29,12,2.43,23.83,3.07,35.8s-1.19,24.84-9.11,33.83C450.4,395,433.4,397.08,418.14,396.41a181.51,181.51,0,0,1-38.83-6c-3.47-.93-7-2-9.77-4.33a18.71,18.71,0,0,1-4.91-7.08c-8.25-19.22-.66-49.13-8.81-68.4-42.34,8.72-83.31,10.57-123-6.6-1.78-.78-3.66-1.65-4.75-3.27-1.25-1.85-1.21-4.26-1-6.49a77.31,77.31,0,0,1,4-18.89c16,7.59,32.27,15.26,49.75,18.06s19.42-.9,33.05-12.2c9.89-8.2,33.32-19.15,43.16-27.4C372.91,240.52,396,238.86,416.7,238.42Z" transform="translate(-1.46 -84.64)" fill="#1963bc"/><path d="M416.7,238.42c8-.16,15.95.41,23.91,1,4.83.35,9.7.71,14.31,2.16a55.39,55.39,0,0,1,10.66,5A241.7,241.7,0,0,1,512,281c2.58,2.44,6,4.86,9.41,5.69s7.53.1,9.72-2.7c1.29-1.65,1.77-3.77,2.36-5.79,1.76-6,5.5-12.33,11.64-13.73,6-1.36,12.19,2.67,15.09,8.07s3.14,11.82,2.76,17.94a114.14,114.14,0,0,1-6.18,29.84c-1.46,4.21-3.27,8.55-6.74,11.34s-8,3.63-12.42,4c-25,1.89-48.8-10.06-71.05-21.69-.29,12,2.43,23.83,3.07,35.8s-1.19,24.84-9.11,33.83C450.4,395,433.4,397.08,418.14,396.41a181.51,181.51,0,0,1-38.83-6c-3.47-.93-7-2-9.77-4.33a18.71,18.71,0,0,1-4.91-7.08c-8.25-19.22-.66-49.13-8.81-68.4-42.34,8.72-83.31,10.57-123-6.6-1.78-.78-3.66-1.65-4.75-3.27-1.25-1.85-1.21-4.26-1-6.49a77.31,77.31,0,0,1,4-18.89c16,7.59,32.27,15.26,49.75,18.06s19.42-.9,33.05-12.2c9.89-8.2,33.32-19.15,43.16-27.4C372.91,240.52,396,238.86,416.7,238.42Z" transform="translate(-1.46 -84.64)" fill="url(#linear-gradient-3)"/><path d="M651.36,456.12A100.3,100.3,0,0,1,638.08,493c-19.79,33.54-53.54,53.41-88.08,61.73s-70.14,6.3-105.36,4.27L221.25,546.09c-30.05-1.73-60.31-3.49-89.46-12a214.1,214.1,0,0,1-65.95-32.63,178.74,178.74,0,0,1-34.84-33c22.81-3.58,50.7.21,66.61-.13l134.93-3q133-2.91,265.9-5.86Z" transform="translate(-1.46 -84.64)" fill="#1963bc" opacity="0.24" style="isolation:isolate"/><path d="M106.6,473.57c18.82,16.79,49.53,6.16,72.63,16.29a55.66,55.66,0,0,0-18.76,18.58q48.15,1.77,96.36,1.14a19.35,19.35,0,0,0-7.92,11.95q139.63,4.31,279.33-2.16c6.54-.3,13.42-.73,18.92-4.29s8.81-11.38,5.24-16.87c-2.52-3.88-7.39-5.32-11.53-7.4s-8.25-6.26-7-10.71c2.41-8.44,19.91-6.3,19.45-15.06-.21-3.93-4.46-6.16-8.12-7.61l8.38-3.19-229.1-1.77c-40.41-.32-81-.63-121.16,4.84C172.71,461.48,134.93,461.5,106.6,473.57Z" transform="translate(-1.46 -84.64)" fill="#1963bc" opacity="0.5" style="isolation:isolate"/><path d="M567.81,364.14c7.13-4.55,14.91-9.29,23.34-8.69s16.59,9.47,13.12,17.18c-1.06,2.36-3,4.24-4.12,6.59-1.65,3.53-1.18,7.65-.63,11.51,2.89,20.3,7.07,41.53.21,60.85-2.56,7.17-6.63,14.1-6.59,21.72,0,3.78,1.08,7.53.76,11.3s-2.64,7.83-6.39,8.29c-5.58.68-8.58-6.23-13-9.74-6.79-5.42-16.69-2.29-25.35-3-9.82-.78-18.4-6.7-27.77-9.78-11.74-3.87-24.86-3.28-35.89-8.85-12.58-6.35-20.31-19.9-22.9-33.75s-.73-28.11,1.61-42c3.14-18.62,9.33-54.29,33.57-55.3,11.45-.48,24.93,5.91,35,10.62C536.29,342.74,568.06,364,567.81,364.14Z" transform="translate(-1.46 -84.64)" fill="#fff"/><path d="M501.71,427.27c-.15,3.47-.2,7.05,1,10.3,3.87,10.35,19.15,14.56,19.83,25.59-13.58,5-30.4-1.58-37-14.47-3.47-6.8-4.2-14.6-4.88-22.2-1.42-15.95-3.15-31.91-4.27-47.88-.64-9.3.27-17.47,11.72-16.12C513,365.43,502.39,411.34,501.71,427.27Z" transform="translate(-1.46 -84.64)" opacity="0.45" fill="url(#linear-gradient-4)"/><path d="M103.35,371.6c-7.73,3.14-15.38,7.7-23.71,7.24-5-.28-9.89-2.41-14.92-2.17s-10.55,4.52-9.23,9.38c.6,2.18,2.38,3.79,3.65,5.66,3.53,5.21,2.85,12.05,2.71,18.34a88.47,88.47,0,0,0,6.56,35.39c3.4,8.29,8.11,16.18,9.65,25,1.39,7.88,1.16,17.82,8.29,21.44,11.94-9.78,29.3-7,44.64-8.76,18.16-2.08,34.69-11.07,50.69-19.9a12.46,12.46,0,0,0,4.43-3.41,11,11,0,0,0,1.48-6.11c.16-8.8-2.2-17.47-5.13-25.77a187.17,187.17,0,0,0-27.86-51.38c-6.15-8-8.89-13.49-19.2-12.28C124.54,365.55,113.52,367.46,103.35,371.6Z" transform="translate(-1.46 -84.64)" fill="#fff"/><path d="M126.43,395.07c-1.17,2.57-2.37,5.24-2.36,8.06,0,7.91,8.83,12.68,12.22,19.83-10.81,8-14.23,24.44-7.51,36.08,2.17,3.76,5.34,7.4,5.09,11.72-.15,2.66-1.58,5.48-.31,7.82,6.66.43,12.87-3,19-5.61,10.22-4.39,21.16-6.82,32-9.23-1.1-5.7-4.15-10.8-7.15-15.77-11-18.31-22.16-36.73-36.43-52.64-3.33-3.71-4.84-10.05-8.25-12.94C129.84,385.28,128.21,391.16,126.43,395.07Z" transform="translate(-1.46 -84.64)" opacity="0.45" fill="url(#linear-gradient-5)"/><path d="M520,472.21c2.06,2.38,4.06,5.35,3.67,8.58-.43,3.67-3.83,6.14-7.17,7-4.45,1.1-9.09.18-13.58-.74l-37.05-7.59a5.18,5.18,0,0,1-2.43-.94,5.44,5.44,0,0,1-1.46-2.65c-1.81-6-1.32-15.53,3.22-20.23,3.74-3.88,10.1-3.24,14.89-3A56.77,56.77,0,0,1,520,472.21Z" transform="translate(-1.46 -84.64)" fill="#606161"/><path d="M517.63,474.6c2,2.16,4,4.85,3.6,7.78-.43,3.33-3.76,5.56-7,6.31-4.36,1-8.9.17-13.3-.66l-36.32-6.88a5.55,5.55,0,0,1-2.39-.86,4.81,4.81,0,0,1-1.42-2.4c-1.78-5.46-1.3-14.08,3.15-18.35,3.67-3.51,9.91-2.93,14.6-2.72A57.46,57.46,0,0,1,517.63,474.6Z" transform="translate(-1.46 -84.64)" fill="#606161"/><path d="M517.63,474.6c2,2.16,4,4.85,3.6,7.78-.43,3.33-3.76,5.56-7,6.31-4.36,1-8.9.17-13.3-.66l-36.32-6.88a5.55,5.55,0,0,1-2.39-.86,4.81,4.81,0,0,1-1.42-2.4c-1.78-5.46-1.3-14.08,3.15-18.35,3.67-3.51,9.91-2.93,14.6-2.72A57.46,57.46,0,0,1,517.63,474.6Z" transform="translate(-1.46 -84.64)" fill="url(#linear-gradient-6)"/><path d="M313.1,300.32c7.71,8.43,10.85,20.37,10.17,31.78s-4.85,22.35-10.24,32.43c-2.71,5.07,1,19.32.29,25-.89,6.94-1.67,7.12-2.64,14.06-1.08,7.77-9.87,11.83-15.39,17.4a233.29,233.29,0,0,1-23.72,20.92c-11.34,8.7-25.1,16.71-39.14,14-5.89-1.13-11.27-4.08-16.45-7.11q-9.53-5.57-18.72-11.66a8.43,8.43,0,0,1-4.9-8.46C191.68,417,191,405,193.6,393.54c2.22-9.91,6.78-19.18,9-29.08,4.36-19.38-.41-40.15,5.27-59.19,1.06-3.55,2.57-7.13,5.39-9.54,2.36-2,5.41-3,8.37-4,12.56-4,25.2-8.07,38.27-9.73C282,279.22,298.24,284.05,313.1,300.32Z" transform="translate(-1.46 -84.64)" fill="#1963bc"/><path d="M320.2,313.69c2.09,11.57,23.6-10.83,22.93,1.18s-23.53,36.88-28.92,47.49c-2.71,5.34-.32,23.26-1.06,29.27-.89,7.31-1.5,4.69-2.47,12-1.08,8.17-9.87,9.67-15.39,15.54a237,237,0,0,1-23.72,22c-11.34,9.17-25.1,17.6-39.14,14.77-5.89-1.19-11.27-4.3-16.45-7.49q-9.53-5.85-18.72-12.28a11.38,11.38,0,0,1-3.91-3.83,12.37,12.37,0,0,1-1-5.07c-.68-12.38-1.34-24.94,1.24-37,2.22-10.43,6.78-20.18,9-30.6,4.36-20.4-.41-42.26,5.27-62.3,1.06-3.73,2.57-7.51,5.39-10,2.36-2.13,5.41-3.18,8.37-4.18,12.56-4.24,25.2-8.49,38.27-10.24C282,269.91,316.33,292.18,320.2,313.69Z" transform="translate(-1.46 -84.64)" fill="url(#linear-gradient-7)"/><path d="M306,314.16s.71,25.16,7.34,75.4c0,0,11.42-22.48,11.66-25.6S317.92,314.16,306,314.16Z" transform="translate(-1.46 -84.64)" fill="url(#linear-gradient-8)"/><path d="M235,331.32s13.63,41.38,25.39,48,19.28,5.17,19.28,5.17l2.82,16.93s-29.35,9.24-37.15,0S235,331.32,235,331.32Z" transform="translate(-1.46 -84.64)" fill="#1963bc"/><path d="M235,331.32s13.63,41.38,25.39,48,19.28,5.17,19.28,5.17l2.82,16.93s-29.35,9.24-37.15,0S235,331.32,235,331.32Z" transform="translate(-1.46 -84.64)" fill="url(#linear-gradient-9)"/><path d="M133,376.75c-1.46,3.16-2.86,6.45-3.05,9.93a21.92,21.92,0,0,0,2.64,10.7,41.36,41.36,0,0,0,20.92,19.7c9.53,4,20.17,4.26,30.51,4.35,3.34,0,6.94,0,9.64-2,4.07-2.95,4.4-8.8,4.34-13.83a83.67,83.67,0,0,1-19.74-12.88,11.94,11.94,0,0,1-3.55-4.39c-1.09-2.85,0-6,1.12-8.86A125.07,125.07,0,0,1,201.68,340c8.72-9,19.49-18,20.47-30.51a14.11,14.11,0,0,0-1.72-8.53c-1.63-2.63-4.35-4.37-7.14-5.7-9.74-4.69-15.87-6-23.15,2.06s-14.63,16.46-21.6,25C154.81,339.13,142.19,357,133,376.75Z" transform="translate(-1.46 -84.64)" fill="#1963bc"/><path d="M133,376.75c-1.46,3.16-2.86,6.45-3.05,9.93a21.92,21.92,0,0,0,2.64,10.7,41.36,41.36,0,0,0,20.92,19.7c9.53,4,20.17,4.26,30.51,4.35,3.34,0,6.94,0,9.64-2,4.07-2.95,4.4-8.8,4.34-13.83a83.67,83.67,0,0,1-19.74-12.88,11.94,11.94,0,0,1-3.55-4.39c-1.09-2.85,0-6,1.12-8.86A125.07,125.07,0,0,1,201.68,340c8.72-9,19.49-18,20.47-30.51a14.11,14.11,0,0,0-1.72-8.53c-1.63-2.63-4.35-4.37-7.14-5.7-9.74-4.69-15.87-6-23.15,2.06s-14.63,16.46-21.6,25C154.81,339.13,142.19,357,133,376.75Z" transform="translate(-1.46 -84.64)" fill="url(#linear-gradient-10)"/><path d="M181.11,344.13c-4,10.65-4.65,22.21-4.71,33.57-.07,12.81.79,26.22,7.33,37.25,9.18,15.49,29.7,23.2,46.82,17.6,5-1.65,9.9-4.47,12.76-8.93,3.63-5.66,3.44-12.89,2.75-19.57-1-9.55-2.7-19-3.22-28.61-.59-10.72.33-21.63-2.09-32.1s-9.19-20.85-19.58-23.59C202.3,314.79,187.44,327,181.11,344.13Z" transform="translate(-1.46 -84.64)" fill="#1963bc"/><path d="M243.68,411.73s47.25-23.28,52.9-9.17S262,445.59,255,449.11s-28.21,5.65-28.21,5.65-59.25-13.41-54.31-27.51S238,412.44,243.68,411.73Z" transform="translate(-1.46 -84.64)" fill="#1963bc"/><path d="M243.68,412.2s47.25-23.28,52.9-9.17S262,446.06,255,449.58s-28.21,5.65-28.21,5.65-59.25-13.41-54.31-27.51S238,412.91,243.68,412.2Z" transform="translate(-1.46 -84.64)" fill="url(#linear-gradient-11)"/><path d="M200.3,331s-37,25.39-38.09,63.13,18.69,37.56,27.51,40.2,41.61-27.15,41.61-27.15l-12-15.17s-23.65,12.48-26.21,7.41C186.55,386.34,200.3,331,200.3,331Z" transform="translate(-1.46 -84.64)" fill="url(#linear-gradient-12)"/><path d="M193.25,325.68s-37,25.39-38.09,63.13S173.5,420.37,182.31,423s42-21.16,42-21.16l-12-15.17s-23.65,12.48-26.21,7.41C179.49,381.05,193.25,325.68,193.25,325.68Z" transform="translate(-1.46 -84.64)" fill="#1963bc"/><path d="M198,323.59c.16,3.86,1.17,7.94,4.05,10.5,3.63,3.21,9.11,3.09,13.81,2,1.83-.43,3.78-1.11,4.79-2.7s.78-3.47.53-5.26q-.63-4.39-1.63-8.72a9.56,9.56,0,0,0-1.28-3.42,8.62,8.62,0,0,0-3.36-2.59c-3.4-1.69-11.59-4.77-15.23-2.38C196.74,312.9,197.88,320.71,198,323.59Z" transform="translate(-1.46 -84.64)" fill="url(#linear-gradient-13)"/><path d="M183.28,296.33a4.39,4.39,0,0,0-2.22,1.93c-.69,1.48,0,3.21.72,4.68a8.61,8.61,0,0,0,2.69,3.7,7.38,7.38,0,0,0,2.33.88,8.29,8.29,0,0,0,3.39.24,3.46,3.46,0,0,0,2.63-2,3.76,3.76,0,0,0,.13-2C192.12,298.43,189.17,294,183.28,296.33Z" transform="translate(-1.46 -84.64)" fill="url(#linear-gradient-14)"/><path d="M186.32,298.72a2.22,2.22,0,0,0-1.29.55,2.27,2.27,0,0,0-.42.72,3.5,3.5,0,0,0-.28,2,3.17,3.17,0,0,0,.74,1.43,4.88,4.88,0,0,0,4.1,1.66,1.37,1.37,0,0,0,.69-.22c.46-.34.43-1,.33-1.58a15.29,15.29,0,0,0-1.1-3.87C188.62,298.44,187.29,298.57,186.32,298.72Z" transform="translate(-1.46 -84.64)" fill="url(#linear-gradient-15)"/><path d="M286.87,287.7c-1,3.8-3.95,7.42-7.86,7.83-3.23.35-6.26-1.52-8.83-3.52a26.82,26.82,0,0,1-6.21-6.37c-4.28-6.59-3.61-15.14-2.41-22.91.67-4.3,1.73-9.05,5.32-11.52a5,5,0,0,1,2.75-1,6,6,0,0,1,2.19.49c4.95,1.92,8.77,6.08,11.32,10.73C287.5,269.39,289.29,278.81,286.87,287.7Z" transform="translate(-1.46 -84.64)" fill="url(#linear-gradient-16)"/><path d="M263.19,256.32s3.05,23.22,12.73,26,11.7-1.79,11.7-1.79l.26-17.09Z" transform="translate(-1.46 -84.64)" fill="url(#linear-gradient-17)"/><path d="M414.8,444.8c-4,.21-8.12.09-11.79-1.51-10.22-4.45-12.49-17.67-13.34-28.79-.53-6.81-1-14,2.15-20.12,4.29-8.35,13.06-11,20.6-15.38,9.41-5.51,13.06-11.23,20.4-18.71,13.33-13.6,36.44-12,47.8,4.43C507.11,403,447.14,443.1,414.8,444.8Z" transform="translate(-1.46 -84.64)" fill="#606161"/><path d="M414.8,444.8c-4,.21-8.12.09-11.79-1.51-10.22-4.45-12.49-17.67-13.34-28.79-.53-6.81-1-14,2.15-20.12,4.29-8.35,13.06-11,20.6-15.38,9.41-5.51,13.06-11.23,20.4-18.71,13.33-13.6,36.44-12,47.8,4.43C507.11,403,447.14,443.1,414.8,444.8Z" transform="translate(-1.46 -84.64)" fill="url(#linear-gradient-18)"/><path d="M237,286.49c1.31.48,1.9,2,2.05,3.39a10.17,10.17,0,0,1-2.52,7.78,3.19,3.19,0,0,1-1.31,1,1.4,1.4,0,0,1-1.52-.35,2.06,2.06,0,0,1-.35-.91C233,295.28,232.08,284.66,237,286.49Z" transform="translate(-1.46 -84.64)" fill="url(#linear-gradient-19)"/><path d="M234.51,296.54c-.22,3.33-.56,6.64-1,9.94a29.6,29.6,0,0,1-1.68,7.23c-2.57,6.31-9.2,10.54-16,10.88a22.9,22.9,0,0,1-18-8.12,48.73,48.73,0,0,1-6.35-10.36A64,64,0,0,1,186.85,295c-1.71-6.08-1.57-13.07,2.14-18.17a15.06,15.06,0,0,1,5-4.39c3.47-1.87,7.51-2.3,11.45-2.6a31.71,31.71,0,0,1,8.92.23,22.88,22.88,0,0,1,6.29,2.49c4.24,2.35,9,5.89,11.47,10.16C234.47,286.68,234.81,292.1,234.51,296.54Z" transform="translate(-1.46 -84.64)" fill="url(#linear-gradient-20)"/><path d="M415.82,236.24c2,5.08,5,10.22,4.06,15.58-.86,4.72-4.72,8.37-8.9,10.73-3.67,2.08-7.94,3.47-12.11,2.77-5.14-.86-9.35-4.84-11.71-9.48s-3.13-9.93-3.59-15.12a32.27,32.27,0,0,1,.28-10.15A18.39,18.39,0,0,1,394.38,218c4.43-1.9,12.35-2.55,16.24,1.13C414.67,223,413.89,231.26,415.82,236.24Z" transform="translate(-1.46 -84.64)" fill="url(#linear-gradient-21)"/><path d="M414.07,224.11s-4.76,15.7-8.11,20.11-12,5.46-12,5.46L388.33,231Z" transform="translate(-1.46 -84.64)" fill="url(#linear-gradient-22)"/><path d="M552.34,276a6.27,6.27,0,0,0,3-.42c3.16-1.36,3.85-5.4,4.85-8.69,2-6.56,6.62-11.92,10-17.88s5.39-13.62,1.89-19.51a37.15,37.15,0,0,0-8.47,6.38c-1.07,1.08-2.33,2.32-3.84,2.16a4.91,4.91,0,0,1-2.8-1.86l-7.29-7.89c-.85-.91-1.95-1.91-3.15-1.6-1.64.41-1.76,2.76-1.13,4.33,1,2.44,2.85,4.47,3.61,7,1.27,4.16-.71,8.3-2.15,12.13-1.33,3.55-2.12,7.26-3.19,10.9C541.77,267.49,544.82,275.5,552.34,276Z" transform="translate(-1.46 -84.64)" fill="url(#linear-gradient-23)"/><path d="M294,278.66c-2.62,1.9-13.86-2.31-16.79-3.68a25.73,25.73,0,0,1-8-5.51,36.56,36.56,0,0,1-3.46-4.57,21.57,21.57,0,0,1-3.09-5.67c-.43-1.39-.58-2.86-1.12-4.21-1.26-3.15-8-6.68-8-10.45,0-1.9.18-3.92,1.3-5.45s3.55-2.25,5-1c-.78-2.46-.88-13.64.33-15.92a19.75,19.75,0,0,1,5.06-5.8c6.41-5.29,14.78-8.56,23.05-7.7a23.64,23.64,0,0,1,14.33,6.85C307.09,220.2,312.8,265,294,278.66Z" transform="translate(-1.46 -84.64)" fill="url(#linear-gradient-24)"/><path d="M226.19,255.28a16.08,16.08,0,0,0-6.18-4.4c-2.79-.9-5.81-.35-8.73-.44-2.19-.06-4.36-.48-6.55-.6A25.42,25.42,0,0,0,183.53,260a28.88,28.88,0,0,0-4.81,23.23,38.82,38.82,0,0,0,3.42,9.21,37.57,37.57,0,0,0,8.91,11.76l-.45-20.8a10.78,10.78,0,0,0,9.05-1.15,20.35,20.35,0,0,0,6.5-6.71c.29-.45.66-1,1.2-1s1,.69,1.25,1.26c2,4.31,6,7.43,10.37,9.18s9.19,2.28,13.91,2.55c1.07.06,2.3.05,3-.76a3.49,3.49,0,0,0,.63-2C237.73,272.9,234.43,263.59,226.19,255.28Z" transform="translate(-1.46 -84.64)" fill="#606161"/><path d="M226.19,255.28a16.08,16.08,0,0,0-6.18-4.4c-2.79-.9-5.81-.35-8.73-.44-2.19-.06-4.36-.48-6.55-.6A25.42,25.42,0,0,0,183.53,260a28.88,28.88,0,0,0-4.81,23.23,38.82,38.82,0,0,0,3.42,9.21,37.57,37.57,0,0,0,8.91,11.76l-.45-20.8a10.78,10.78,0,0,0,9.05-1.15,20.35,20.35,0,0,0,6.5-6.71c.29-.45.66-1,1.2-1s1,.69,1.25,1.26c2,4.31,6,7.43,10.37,9.18s9.19,2.28,13.91,2.55c1.07.06,2.3.05,3-.76a3.49,3.49,0,0,0,.63-2C237.73,272.9,234.43,263.59,226.19,255.28Z" transform="translate(-1.46 -84.64)" fill="url(#linear-gradient-25)"/><path d="M345.78,428.68c-8.16,6.28-17.11,11.82-23.46,19.93s-9.53,19.79-4.49,28.76c6.31,11.24,21.47,13,34.35,13.41,37.78,1.2,75.91,2.1,113.05-4.92A64.85,64.85,0,0,0,462,460.3a5.82,5.82,0,0,0-1.34-2.45c-1.31-1.22-3.34-1-5.12-.84a98.2,98.2,0,0,1-46.08-5.77L422,440.7c7.17-6,14.83-12.84,16.26-22.08,1.9-12.35-8.81-23.8-20.82-27.25-11.32-3.25-32.32-3.54-40.88,5.1C365.94,407.21,358.06,419.24,345.78,428.68Z" transform="translate(-1.46 -84.64)" fill="#606161"/><path d="M345.78,428.68c-8.16,6.28-17.11,11.82-23.46,19.93s-9.53,19.79-4.49,28.76c6.31,11.24,21.47,13,34.35,13.41,37.78,1.2,75.91,2.1,113.05-4.92A64.85,64.85,0,0,0,462,460.3a5.82,5.82,0,0,0-1.34-2.45c-1.31-1.22-3.34-1-5.12-.84a98.2,98.2,0,0,1-46.08-5.77L422,440.7c7.17-6,14.83-12.84,16.26-22.08,1.9-12.35-8.81-23.8-20.82-27.25-11.32-3.25-32.32-3.54-40.88,5.1C365.94,407.21,358.06,419.24,345.78,428.68Z" transform="translate(-1.46 -84.64)" fill="url(#linear-gradient-26)"/><path d="M408.9,447.75a10.61,10.61,0,0,1-3.65-2.76A126.58,126.58,0,0,0,393,434.19a10.43,10.43,0,0,0-4-2.21c-2.74-.6-5.42.93-7.92,2.18a47.1,47.1,0,0,1-20.92,5,19.91,19.91,0,0,0-5.29.38,18.93,18.93,0,0,0-5.13,2.73,71.79,71.79,0,0,1-25.82,10.46c1.42-4.05,5.44-6.46,8.92-9a55.85,55.85,0,0,0,10.22-9.57c3.34-4,6.15-8.58,10.15-12,3.34-2.83,7.36-4.71,11.32-6.57l16.69-7.8a13.73,13.73,0,0,1,5.06-1.6c4.1-.17,7.38,3.28,9.83,6.57A101.92,101.92,0,0,1,407.36,432C408.54,434.63,416.29,450.42,408.9,447.75Z" transform="translate(-1.46 -84.64)" fill="url(#linear-gradient-27)"/><path d="M470.44,458.24a6.74,6.74,0,0,0-3.74.92,6.23,6.23,0,0,0-1.93,3.35c-2.57,8.47-2.33,17.51-2,26.36a9.29,9.29,0,0,0,.78,4.12,8.72,8.72,0,0,0,3,2.92,61.18,61.18,0,0,0,31.67,10.2c2.81.1,5.93-.12,7.92-2.11s2.22-5.44,1.81-8.38A33.32,33.32,0,0,0,503.48,483c-2.41-3.95-5.62-7.35-8.28-11.13-2.51-3.58-3.35-11.35-6.89-13.74S474.74,458,470.44,458.24Z" transform="translate(-1.46 -84.64)" fill="#606161"/><path d="M470.21,453.53a6.75,6.75,0,0,0-3.74.93,6.17,6.17,0,0,0-1.93,3.35c-2.58,8.47-2.34,17.51-2,26.36a9.36,9.36,0,0,0,.78,4.11,8.74,8.74,0,0,0,3.05,2.93A61.24,61.24,0,0,0,498,501.41c2.81.09,5.92-.13,7.91-2.11s2.22-5.44,1.81-8.38a33.15,33.15,0,0,0-4.51-12.62c-2.41-3.95-5.61-7.35-8.27-11.14-2.52-3.57-3.35-11.34-6.9-13.73S474.5,453.33,470.21,453.53Z" transform="translate(-1.46 -84.64)" fill="url(#linear-gradient-28)"/><path d="M166.94,418.21c-9-2.82-20-4.69-26.66,1.91-4.12,4.06-5.26,10.46-4.16,16.14,1.42,7.39,6.17,13.81,12,18.57s12.71,8,19.61,11c24.84,10.74,50.87,18.4,76.83,26,4,1.17,8.14,2.35,12.2,1.51,7.66-1.61,12-9.56,15.27-16.66a3.77,3.77,0,0,0-1.35-5.5c-13.95-12.55-30-20.33-46.66-28.83C205.67,433.05,186.71,424.1,166.94,418.21Z" transform="translate(-1.46 -84.64)" fill="#606161"/><path d="M166.94,418.21c-9-2.82-20-4.69-26.66,1.91-4.12,4.06-5.26,10.46-4.16,16.14,1.42,7.39,6.17,13.81,12,18.57s12.71,8,19.61,11c24.84,10.74,50.87,18.4,76.83,26,4,1.17,8.14,2.35,12.2,1.51,7.66-1.61,12-9.56,15.27-16.66a3.77,3.77,0,0,0-1.35-5.5c-13.95-12.55-30-20.33-46.66-28.83C205.67,433.05,186.71,424.1,166.94,418.21Z" transform="translate(-1.46 -84.64)" fill="url(#linear-gradient-29)"/><path d="M191.73,484.61c-1.75,1.56-3.5,3.29-4.19,5.53-1.12,3.62,1,7.67,4.1,9.8s7.07,2.7,10.87,2.77c8.58.14,41.2-14.45,40.29-16.57-2.09-4.82-9.81-17-15.7-17.63C219.21,467.65,197.16,479.79,191.73,484.61Z" transform="translate(-1.46 -84.64)" fill="#1963bc"/><path d="M191.73,484.61c-1.75,1.56-3.5,3.29-4.19,5.53-1.12,3.62,1,7.67,4.1,9.8s7.07,2.7,10.87,2.77c8.58.14,41.2-14.45,40.29-16.57-2.09-4.82-9.81-17-15.7-17.63C219.21,467.65,197.16,479.79,191.73,484.61Z" transform="translate(-1.46 -84.64)" fill="#606161"/><path d="M191.73,484.61c-1.75,1.56-3.5,3.29-4.19,5.53-1.12,3.62,1,7.67,4.1,9.8s7.07,2.7,10.87,2.77c8.58.14,41.2-14.45,40.29-16.57-2.09-4.82-9.81-17-15.7-17.63C219.21,467.65,197.16,479.79,191.73,484.61Z" transform="translate(-1.46 -84.64)" fill="url(#linear-gradient-30)"/><path d="M221.59,472.05c-2,.88-4.13,1.93-5,3.9a7.28,7.28,0,0,0-.37,3.9c.55,4.33,3.14,8.8,7.36,9.9,3.59.94,7.3-.74,10.63-2.38,5-2.47,10.16-5.07,13.77-9.34,1.31-1.55,2.44-3.56,1.9-5.52a7.54,7.54,0,0,0-2-3c-3.26-3.38-6.41-6.26-10.9-4.46C231.75,467.14,226.68,469.77,221.59,472.05Z" transform="translate(-1.46 -84.64)" fill="url(#linear-gradient-31)"/><path d="M282.57,476.06c6.31,2,12.07,5.58,18.41,7.51s13.91,1.93,18.86-2.48a8.25,8.25,0,0,0,2.21-2.9,11.63,11.63,0,0,0,.51-5.54,98.78,98.78,0,0,0-3-17.5,12.46,12.46,0,0,0-2.71-5.72c-2.59-2.63-6.77-2.62-10.47-2.43l-19.67,1c-6.55.33-14.1,1.21-17.67,6.71a20.71,20.71,0,0,0-2.32,6c-1.09,4-4.32,9.64.28,12.16,2,1.11,5,1,7.19,1.32C276.81,474.58,280,476.06,282.57,476.06Z" transform="translate(-1.46 -84.64)" fill="#606161"/><path d="M282.57,476.06c6.31,2,12.07,5.58,18.41,7.51s13.91,1.93,18.86-2.48a8.25,8.25,0,0,0,2.21-2.9,11.63,11.63,0,0,0,.51-5.54,98.78,98.78,0,0,0-3-17.5,12.46,12.46,0,0,0-2.71-5.72c-2.59-2.63-6.77-2.62-10.47-2.43l-19.67,1c-6.55.33-14.1,1.21-17.67,6.71a20.71,20.71,0,0,0-2.32,6c-1.09,4-4.32,9.64.28,12.16,2,1.11,5,1,7.19,1.32C276.81,474.58,280,476.06,282.57,476.06Z" transform="translate(-1.46 -84.64)" fill="url(#linear-gradient-32)"/><path d="M273.71,500.56A53.22,53.22,0,0,0,287,502c4.51-.22,9.15-1.51,12.57-4.26s5.39-7.12,4.19-10.9c-1.56-4.94-7.53-7.4-13-8.95-5.33-1.51-11.5-2.61-16.53,0a22.64,22.64,0,0,0-5.76,4.8,22.38,22.38,0,0,0-4.1,5.19C260.88,494.72,266.94,499.18,273.71,500.56Z" transform="translate(-1.46 -84.64)" fill="#606161"/><path d="M273.71,500.56A53.22,53.22,0,0,0,287,502c4.51-.22,9.15-1.51,12.57-4.26s5.39-7.12,4.19-10.9c-1.56-4.94-7.53-7.4-13-8.95-5.33-1.51-11.5-2.61-16.53,0a22.64,22.64,0,0,0-5.76,4.8,22.38,22.38,0,0,0-4.1,5.19C260.88,494.72,266.94,499.18,273.71,500.56Z" transform="translate(-1.46 -84.64)" fill="url(#linear-gradient-33)"/><path d="M257.09,486.93c2.79,5.36,9.21,8.27,15.24,7.85,3.15-.22,6.39-1.33,8.43-3.74,3.69-4.37,1.47-10.78-10.87-14.77C264.92,474.66,256.15,485.14,257.09,486.93Z" transform="translate(-1.46 -84.64)" fill="url(#linear-gradient-34)"/><path d="M412.5,183.84c.33-1.26,1.25-2.59,2.55-2.56a2.42,2.42,0,0,1,1.94,1.3,5.93,5.93,0,0,1,.61,2.35,25.39,25.39,0,0,1-.1,6.16,6.16,6.16,0,0,1-1.88,4.15.37.37,0,0,1-.64-.1,15.26,15.26,0,0,1-2.17-5.56C412.47,187.69,412,185.74,412.5,183.84Z" transform="translate(-1.46 -84.64)" fill="url(#linear-gradient-35)"/><path d="M357.41,198.9a2.39,2.39,0,0,0-1.66.71,2.36,2.36,0,0,0-.44,1.49c-.08,3.64,2.89,6.65,6.06,8.45,1.34.76,3.16,1.35,4.31.32s.78-2.87.2-4.29C364.38,201.86,362,198.44,357.41,198.9Z" transform="translate(-1.46 -84.64)" fill="url(#linear-gradient-36)"/><path d="M364.15,205.63c4.52,9.4,9.18,19,16.64,26.29a17.6,17.6,0,0,0,17.13,5.46c4.38-.61,8.85-2,12-5.17a20.17,20.17,0,0,0,3.93-6.28c6.69-15.64,2.68-34-5.28-49.06-2.47-4.66-5.46-9.28-9.94-12-6.32-3.9-14.44-3.38-21.55-1.3-6.21,1.82-20,6.5-21.33,13.93C354.14,186.45,360.43,197.91,364.15,205.63Z" transform="translate(-1.46 -84.64)" fill="url(#linear-gradient-37)"/><path d="M348.37,181a20.65,20.65,0,0,1-2.87-6.8c-.39-2.45.26-5.21,2.23-6.7a5.22,5.22,0,0,0,1.29-1.09,4,4,0,0,0,.44-2.09c.36-6.84,6-12.48,12.41-15s13.43-2.47,20.28-2.49,13.93-.17,20.2-2.93a10.69,10.69,0,0,1-.05,6.57c1.62-1,3.84.68,4.06,2.59s-.85,3.68-1.87,5.3c4,1,6.07,5.51,6.44,9.61s-.35,8.33.69,12.32a16.06,16.06,0,0,1,.76,3.33A3.08,3.08,0,0,1,411,186.6c-1.81-6-5.66-11.11-9.45-16.09a17.38,17.38,0,0,0-3.9-4.12,5.94,5.94,0,0,0-5.41-.88,23.45,23.45,0,0,0-3.33,2.25,12.27,12.27,0,0,1-4.33,1.42c-8.56,1.58-17.88,1.5-25.05,6.44a5.61,5.61,0,0,0-2.14,2.29,6.45,6.45,0,0,0-.14,3.3l1.49,11.49c.32,2.48.79,5.13,2.66,6.94C355.91,194.34,352.1,187.57,348.37,181Z" transform="translate(-1.46 -84.64)" fill="#606161"/><path d="M348.37,181a20.65,20.65,0,0,1-2.87-6.8c-.39-2.45.26-5.21,2.23-6.7a5.22,5.22,0,0,0,1.29-1.09,4,4,0,0,0,.44-2.09c.36-6.84,6-12.48,12.41-15s13.43-2.47,20.28-2.49,13.93-.17,20.2-2.93a10.69,10.69,0,0,1-.05,6.57c1.62-1,3.84.68,4.06,2.59s-.85,3.68-1.87,5.3c4,1,6.07,5.51,6.44,9.61s-.35,8.33.69,12.32a16.06,16.06,0,0,1,.76,3.33A3.08,3.08,0,0,1,411,186.6c-1.81-6-5.66-11.11-9.45-16.09a17.38,17.38,0,0,0-3.9-4.12,5.94,5.94,0,0,0-5.41-.88,23.45,23.45,0,0,0-3.33,2.25,12.27,12.27,0,0,1-4.33,1.42c-8.56,1.58-17.88,1.5-25.05,6.44a5.61,5.61,0,0,0-2.14,2.29,6.45,6.45,0,0,0-.14,3.3l1.49,11.49c.32,2.48.79,5.13,2.66,6.94C355.91,194.34,352.1,187.57,348.37,181Z" transform="translate(-1.46 -84.64)" fill="url(#linear-gradient-38)"/><path d="M155.2,382a64.72,64.72,0,0,1,8,.1c2,.15,4.55.86,4.83,2.87.23,1.59-1.22,3-2.73,3.5s-3.17.55-4.68,1.11a14.87,14.87,0,0,1,8.53,2.13,2.31,2.31,0,0,1,.92.86c.54,1.09-.66,2.22-1.74,2.76a19.06,19.06,0,0,1-4.5,1.56,11.43,11.43,0,0,1,5.32,1.45,3.44,3.44,0,0,1,1.59,1.54,2.74,2.74,0,0,1-1.49,3.23,7.94,7.94,0,0,1-3.82.61,8.49,8.49,0,0,1,3.11,1.62,2.91,2.91,0,0,1,.85,3.18c-.59,1.27-2.19,1.63-3.57,1.83l-8.35,1.24a8.48,8.48,0,0,1-2.56.13,5.56,5.56,0,0,1-2.92-1.48c-3-2.75-3.23-7.31-3.25-11.37l-.06-9.39C148.65,385.32,150.8,382.26,155.2,382Z" transform="translate(-1.46 -84.64)" fill="url(#linear-gradient-39)"/><path d="M299,409.1c6.58-4.88,13.26-9.83,20.93-12.71s16.58-3.49,23.85.27,12.17,12.59,9.76,20.41c-1,3.36-3.22,6.22-5.42,8.94-13.92,17.24-30.37,32.66-49.6,43.65S257.11,487.07,235,486a3.12,3.12,0,0,1-3.5-2.6l-3.29-8.83a12.27,12.27,0,0,1-1.12-5.32c.27-2.88,2.5-5.14,4.61-7.12C252.55,442.68,276.14,426,299,409.1Z" transform="translate(-1.46 -84.64)" fill="#606161"/><path d="M299,409.1c6.58-4.88,13.26-9.83,20.93-12.71s16.58-3.49,23.85.27,12.17,12.59,9.76,20.41c-1,3.36-3.22,6.22-5.42,8.94-13.92,17.24-30.37,32.66-49.6,43.65S257.11,487.07,235,486a3.12,3.12,0,0,1-3.5-2.6l-3.29-8.83a12.27,12.27,0,0,1-1.12-5.32c.27-2.88,2.5-5.14,4.61-7.12C252.55,442.68,276.14,426,299,409.1Z" transform="translate(-1.46 -84.64)" fill="url(#linear-gradient-40)"/><path d="M407.65,336.23c7.62,1.38,15.19-2.13,22.15-5.55l16.81-8.26a16.65,16.65,0,0,1,6.61-2.18c2.33-.09,4.89,1,5.71,3.22.91,2.41-.59,5.14-2.63,6.71s-4.57,2.36-6.83,3.59c-6.56,3.59-10.45,10.67-16.48,15.1a34.11,34.11,0,0,1-12.54,5.38c-11.62,2.73-24.77,1.34-34-6.26-5.68-4.68-16.44-24.38-6-29.68,5.31-2.68,8.81,4.78,11.82,8C396.54,330.87,401.37,335.09,407.65,336.23Z" transform="translate(-1.46 -84.64)" fill="url(#linear-gradient-41)"/><path d="M314.22,379.75s-9.15,16.34-.66,31.05,44.44,19.28,51,13.72,18.63-15.68,18.63-15.68-2.94-6.87,2.61-17.65,8.82-13.72,11.11-12.42,17.32,17,19.28,25.17,14.71,10.78,18.63,11.11,16-5.56,16-5.56-1.63-18.3-8.17-25.16-20.26-29.74-39.87-20.92-33.33,13.73-33.33,13.73Z" transform="translate(-1.46 -84.64)" fill="#606161"/><path d="M314.22,379.75s-9.15,16.34-.66,31.05,44.44,19.28,51,13.72,18.63-15.68,18.63-15.68-2.94-6.87,2.61-17.65,8.82-13.72,11.11-12.42,17.32,17,19.28,25.17,14.71,10.78,18.63,11.11,16-5.56,16-5.56-1.63-18.3-8.17-25.16-20.26-29.74-39.87-20.92-33.33,13.73-33.33,13.73Z" transform="translate(-1.46 -84.64)" fill="url(#linear-gradient-42)"/><path d="M322,322.9c-2.59,9.21-1.4,19.09-3.3,28.47-1.18,5.88-3.56,11.48-4.49,17.4s-.14,12.59,4.12,16.82a18.52,18.52,0,0,0,9.21,4.54c7.69,1.7,15.78.54,23.23-2s14.37-6.4,21.24-10.24a18.19,18.19,0,0,0,4.92-3.52c2.71-3,3.09-7.46,3.15-11.54.13-8.14-.44-16.37,1.14-24.36,1.11-5.67,3.3-11.21,3.11-17a21.23,21.23,0,0,0-11.19-17.74c-5.79-3-12.39-3.09-18.67-4.31-5.27-1-7.93-1.77-13.09.71A36.79,36.79,0,0,0,322,322.9Z" transform="translate(-1.46 -84.64)" fill="#1963bc"/><path d="M322,322.9c-2.59,9.21-1.4,19.09-3.3,28.47-1.18,5.88-3.56,11.48-4.49,17.4s-.14,12.59,4.12,16.82a18.52,18.52,0,0,0,9.21,4.54c7.69,1.7,15.78.54,23.23-2s14.37-6.4,21.24-10.24a18.19,18.19,0,0,0,4.92-3.52c2.71-3,3.09-7.46,3.15-11.54.13-8.14-.44-16.37,1.14-24.36,1.11-5.67,3.3-11.21,3.11-17a21.23,21.23,0,0,0-11.19-17.74c-5.79-3-12.39-3.09-18.67-4.31-5.27-1-7.93-1.77-13.09.71A36.79,36.79,0,0,0,322,322.9Z" transform="translate(-1.46 -84.64)" fill="url(#linear-gradient-43)"/><path d="M316.53,374c-.36,5.78-.07,12.62,4.72,15.87a14.47,14.47,0,0,0,6.95,2.05,45.62,45.62,0,0,0,14.27-1c1.7-.39,13.18-4.78,13.18-4.78-.47-.72-16.4-5.51-19-7.73-4.19-3.5-4-9.95-2.83-15.28s2.83-11.11.47-16-12.31-9.33-14.55-2.69C316.74,353.2,317.09,364.8,316.53,374Z" transform="translate(-1.46 -84.64)" fill="url(#linear-gradient-44)"/><path d="M333.88,236.53a15.27,15.27,0,0,0-3.2,6.84,41.23,41.23,0,0,0-.88,14.93c.85,6.84,3.36,14,.67,20.37-.84,2-2.13,3.69-3,5.62a7.73,7.73,0,0,0-.61,6.18,3.15,3.15,0,0,0,1.27,1.56,3.07,3.07,0,0,0,3.42-.61,9,9,0,0,0,2-3.1c-.79,1.41.31,3.35,1.87,3.77a4.55,4.55,0,0,0,4.35-1.53,13.52,13.52,0,0,0,2.34-4.22,6.42,6.42,0,0,0,1.27,2.72c3-.72,4.72-3.93,5.84-6.85,3.1-8.08,5-16.79,4-25.38C352.4,250.28,343.15,226.35,333.88,236.53Z" transform="translate(-1.46 -84.64)" fill="#606161"/><path d="M333.88,236.53a15.27,15.27,0,0,0-3.2,6.84,41.23,41.23,0,0,0-.88,14.93c.85,6.84,3.36,14,.67,20.37-.84,2-2.13,3.69-3,5.62a7.73,7.73,0,0,0-.61,6.18,3.15,3.15,0,0,0,1.27,1.56,3.07,3.07,0,0,0,3.42-.61,9,9,0,0,0,2-3.1c-.79,1.41.31,3.35,1.87,3.77a4.55,4.55,0,0,0,4.35-1.53,13.52,13.52,0,0,0,2.34-4.22,6.42,6.42,0,0,0,1.27,2.72c3-.72,4.72-3.93,5.84-6.85,3.1-8.08,5-16.79,4-25.38C352.4,250.28,343.15,226.35,333.88,236.53Z" transform="translate(-1.46 -84.64)" fill="url(#linear-gradient-45)"/><path d="M370.52,308.06c.16,3.44.52,7-.55,10.36s-4.22,6.08-6.56,4.61a7.42,7.42,0,0,1-2.22-3L353,303.94a8.25,8.25,0,0,1-1.08-3.21c-.11-2,.75-4.9.78-6.79,0-3.18-.72-7.47,0-9.34s5.38,1.81,6.57.31,3.36-1.46,4.93-.69c3.28,1.61,5.76,5.32,6.52,9.77.17,1,.41,1.91.62,2.88.36,1.67.48.82.1,2.63A31.56,31.56,0,0,0,370.52,308.06Z" transform="translate(-1.46 -84.64)" fill="url(#linear-gradient-46)"/><path d="M356.43,296.86c2.36,4.5,5,9.33,9.7,11.35a2.71,2.71,0,0,0,1.64.3,2.46,2.46,0,0,0,1.12-.68c1.49-1.51,1.75-3.81,1.92-5.93l.4-4.89a1.78,1.78,0,0,0-.19-1.23,1.83,1.83,0,0,0-.76-.51l-11.31-5c-1.31-.59-4.26-1.65-5,.25C353.36,292,355.75,295.55,356.43,296.86Z" transform="translate(-1.46 -84.64)" fill="url(#linear-gradient-47)"/><path d="M368.77,301.59A28.85,28.85,0,0,1,352.87,290a19.06,19.06,0,0,1-2.5-4.9,22.45,22.45,0,0,1-.88-6.27,54.37,54.37,0,0,1,5.25-24.58,20.72,20.72,0,0,1,3.39-5.33c3-3.26,7.55-4.72,11.94-5.45a68.73,68.73,0,0,1,10.23-.82,13.18,13.18,0,0,1,5.69.81,10.59,10.59,0,0,1,3.44,2.73c2.54,2.85,2.61,6.71,3.13,10.55C393.13,260.84,388.23,306.88,368.77,301.59Z" transform="translate(-1.46 -84.64)" fill="url(#linear-gradient-48)"/><path d="M400,249.59c-.71-5.06-2.9-9.78-5.33-14.28-1.11-2.05-2.35-4.14-4.3-5.41a14.91,14.91,0,0,0-5.08-1.72l-10.71-2.24a45.4,45.4,0,0,0-9.19-1.27c-10.25,0-19.77,7.52-23.16,17.19s-1.06,20.87,5,29.11a2.72,2.72,0,0,0,1.67,1.28c1.15.13,1.94-1.12,2.37-2.2,1.38-3.45,2.33-7.08,4-10.41s4.23-6.41,7.75-7.64a39.91,39.91,0,0,1,5.35-1.08,20,20,0,0,0,8.26-3.82,1.94,1.94,0,0,1,1.57-.61c.52.14.8.69,1.08,1.15,1.93,3.18,6.21,4,8.79,6.73,1.48,1.55,2.29,3.59,3.43,5.4C397.86,269.86,400.73,254.82,400,249.59Z" transform="translate(-1.46 -84.64)" fill="#606161"/><path d="M400,249.59c-.71-5.06-2.9-9.78-5.33-14.28-1.11-2.05-2.35-4.14-4.3-5.41a14.91,14.91,0,0,0-5.08-1.72l-10.71-2.24a45.4,45.4,0,0,0-9.19-1.27c-10.25,0-19.77,7.52-23.16,17.19s-1.06,20.87,5,29.11a2.72,2.72,0,0,0,1.67,1.28c1.15.13,1.94-1.12,2.37-2.2,1.38-3.45,2.33-7.08,4-10.41s4.23-6.41,7.75-7.64a39.91,39.91,0,0,1,5.35-1.08,20,20,0,0,0,8.26-3.82,1.94,1.94,0,0,1,1.57-.61c.52.14.8.69,1.08,1.15,1.93,3.18,6.21,4,8.79,6.73,1.48,1.55,2.29,3.59,3.43,5.4C397.86,269.86,400.73,254.82,400,249.59Z" transform="translate(-1.46 -84.64)" fill="url(#linear-gradient-49)"/><path d="M387.72,318.86c2.52,3.2,5.16,6.72,5.19,10.79a16.94,16.94,0,0,1-1.16,5.55c-1.05,3.12-2.27,6.19-3.62,9.19-.69,1.51-1.56,3.14-3.12,3.69-3.54-1.63-5.56-5.54-6.13-9.4s0-7.77.29-11.66c.19-2.75.22-5.5.16-8.25,0-1.59-1.19-6.77-.33-8C380.88,308.08,386.43,317.23,387.72,318.86Z" transform="translate(-1.46 -84.64)" fill="#1963bc"/><path d="M387.72,318.86c2.52,3.2,5.16,6.72,5.19,10.79a16.94,16.94,0,0,1-1.16,5.55c-1.05,3.12-2.27,6.19-3.62,9.19-.69,1.51-1.56,3.14-3.12,3.69-3.54-1.63-5.56-5.54-6.13-9.4s0-7.77.29-11.66c.19-2.75.22-5.5.16-8.25,0-1.59-1.19-6.77-.33-8C380.88,308.08,386.43,317.23,387.72,318.86Z" transform="translate(-1.46 -84.64)" fill="url(#linear-gradient-50)"/><path d="M327.78,310.8c-3.49,4.87-8.44,10.7-11,16.12-2.44,5.22-2.5,25.46-1.46,25.87,4.77,1.92,14.21,1.5,19.23.4a3.2,3.2,0,0,0,1.85-.89A3.42,3.42,0,0,0,337,350c-.05-6.05-2.38-15.3-2.44-21.35a29.81,29.81,0,0,0-.95-8.74c-.88-2.8-2.58-7-5.49-6.56Z" transform="translate(-1.46 -84.64)" fill="#1963bc"/><path d="M332.38,315.08a4.22,4.22,0,0,0-7.22-.75c-3,4-6.4,8.43-8.34,12.59-2.44,5.22-2.5,25.46-1.46,25.87,4.77,1.92,14.21,1.5,19.23.4a3.2,3.2,0,0,0,1.85-.89A3.42,3.42,0,0,0,337,350c-.05-6.05-2.38-15.3-2.44-21.35,0-2.94-.67-5.81-.95-8.74A15.49,15.49,0,0,0,332.38,315.08Z" transform="translate(-1.46 -84.64)" fill="url(#linear-gradient-51)"/><path d="M439.84,330.33c4.67-11.52,17.37-21.06,29.07-16.88,38.5,13.76,21.4,105.33,22.47,145.22a10.22,10.22,0,0,1-4.14,8.32c-1.85,1.32-14.54-.83-16.8-.6-7.32.75-23.67-86.22-31.39-98.49C432.1,356.85,435,342.24,439.84,330.33Z" transform="translate(-1.46 -84.64)" fill="#606161"/><path d="M439.84,330.33c4.67-11.52,17.37-21.06,29.07-16.88,38.5,13.76,21.4,105.33,22.47,145.22a10.22,10.22,0,0,1-4.14,8.32c-1.85,1.32-14.54-.83-16.8-.6-7.32.75-23.67-86.22-31.39-98.49C432.1,356.85,435,342.24,439.84,330.33Z" transform="translate(-1.46 -84.64)" fill="url(#linear-gradient-52)"/><path d="M274.06,396.49c-.14,1.54.11,3.27,1.32,4.22a5.73,5.73,0,0,0,1.48.75l5,2a2.28,2.28,0,0,0,2,.11c.4-.26.58-.74.89-1.1.91-1.05,2.63-.84,3.86-.19a7.49,7.49,0,0,1,2.62,2.35c.56.82,1.06,1.83,2,2.09a2.52,2.52,0,0,0,2.52-1.13c2-2.61.92-6.47-.91-9.22a21.69,21.69,0,0,0-11.74-8.66C277.89,386.09,274.49,391.62,274.06,396.49Z" transform="translate(-1.46 -84.64)" fill="url(#linear-gradient-53)"/><path d="M238.8,384.88c2.07,1.76,1.56,5.13.27,7.52-3.4,6.32-19.62,17.44-26.95,12.19-6.51-4.66,3.16-15.19,7.18-17.95C224,383.4,233.9,380.7,238.8,384.88Z" transform="translate(-1.46 -84.64)" fill="url(#linear-gradient-54)"/><path d="M391,419.08l27.73,32.67c1.14,1.36,2.05,2.95,3.74,3.48,2.79.87,12.87,2.85,12.44,1.66-10.11-28.45-17.87-54.67-32.83-73.42-1.61-2-3.44-4.09-5.91-4.88-4.07-1.31-8.56,1.43-10.69,5.15C378.52,396,382.79,409.37,391,419.08Z" transform="translate(-1.46 -84.64)" fill="url(#linear-gradient-55)"/><path d="M413.33,380.81c.39-4.37,3.13-8.85,7.41-9.83a10.36,10.36,0,0,1,6,.63c6.94,2.73,10.71,10.14,13.26,17.14,7.3,20.05,15.14,46.92,12.27,68.05-.24,1.74-7.13,1-8.88.87-1.11-.09-12.57-26.5-17.74-39C421.23,408.07,412.28,392.64,413.33,380.81Z" transform="translate(-1.46 -84.64)" fill="url(#linear-gradient-56)"/><path d="M347.65,267.06a3.71,3.71,0,0,0-1.37,0,2.54,2.54,0,0,0-1.56,1.26,5.62,5.62,0,0,0-.59,2,8.12,8.12,0,0,0,.79,5.14,4.69,4.69,0,0,0,4.36,2.47,1.79,1.79,0,0,0,.93-.32,2.31,2.31,0,0,0,.63-1.53c.28-1.88,1.15-4.62.7-6.5C351.14,267.86,349.16,267.28,347.65,267.06Z" transform="translate(-1.46 -84.64)" fill="url(#linear-gradient-57)"/><path d="M347.33,269.32a1.78,1.78,0,0,0-1.64,1.12,2.75,2.75,0,0,0-.11,1.18,5.35,5.35,0,0,0,.79,2.59,2.93,2.93,0,0,0,2.7,1.43,1,1,0,0,0,.86-1.5,11.68,11.68,0,0,1-.87-2.64C349,270.45,348.61,269.35,347.33,269.32Z" transform="translate(-1.46 -84.64)" fill="url(#linear-gradient-58)"/><path d="M261.47,239.24a10.47,10.47,0,0,0,2.95.43c3.55.17,7.39.25,10.31-1.76s4.2-5.57,5.29-8.91,2.3-6.92,5.11-9c3-2.22,7.39-2.54,9.46-5.62a3.84,3.84,0,0,0,.71-2.59,5.78,5.78,0,0,0-1.63-2.79,11.1,11.1,0,0,0-4.22-3.44A10.16,10.16,0,0,0,286,205a99.16,99.16,0,0,0-10.9.49c-3.62.34-7.31.84-10.54,2.5a24.17,24.17,0,0,0-7.88,7.12,24.83,24.83,0,0,0-4.48,8.23c-1,3.44-.84,7.81,1.69,10.6A22.92,22.92,0,0,0,261.47,239.24Z" transform="translate(-1.46 -84.64)" fill="#606161"/><path d="M283.49,195.71c3.62.15,7.06,1.54,10.36,3,7.39,3.35,14.7,7.52,19.62,14s7,15.62,3.28,22.82a78,78,0,0,0-9.1-14.67,38,38,0,0,0-7-6.63c-2.13-1.52-4.71-2.31-6-4.65C291.52,204,289.24,199.24,283.49,195.71Z" transform="translate(-1.46 -84.64)" fill="url(#linear-gradient-59)"/><path d="M376.89,316.54c-.06.62,0,1.38.53,1.66a1.5,1.5,0,0,0,1.2-.11,7.13,7.13,0,0,0,3-2.52,10.42,10.42,0,0,0-1,5.81c.08.66.31,1.42.93,1.64a1.69,1.69,0,0,0,1.49-.39,5.7,5.7,0,0,0,2.17-3.16,16,16,0,0,0-.75,7.29,1.62,1.62,0,0,0,.65,1.31,1.47,1.47,0,0,0,1.3-.13,9.34,9.34,0,0,0,3.87-4.35,7.43,7.43,0,0,0,1.11-4.31c-.2-1.49-1.52-2.93-3-2.74.22,0-4.24-8-6.38-8.39C377.81,307.38,377.19,313.43,376.89,316.54Z" transform="translate(-1.46 -84.64)" fill="url(#linear-gradient-60)"/><path d="M78.28,412.83a139.9,139.9,0,0,1,9.19,17.37,70.22,70.22,0,0,1,4.82,18.34c1.22,10,0,20.89-6,29a.93.93,0,0,1-.52.42c-.39.06-.67-.36-.83-.72q-6.28-13.89-12.56-27.77c-1.84-4.06-3.68-8.13-5.13-12.34a72.63,72.63,0,0,1-3.39-32.38c.4-3.29.58-10.32,5.38-7C72.94,400.3,76,409,78.28,412.83Z" transform="translate(-1.46 -84.64)" fill="#1963bc" opacity="0.5" style="isolation:isolate"/><path d="M78.28,412.83a139.9,139.9,0,0,1,9.19,17.37,70.22,70.22,0,0,1,4.82,18.34c1.22,10,0,20.89-6,29a.93.93,0,0,1-.52.42c-.39.06-.67-.36-.83-.72q-6.28-13.89-12.56-27.77c-1.84-4.06-3.68-8.13-5.13-12.34a72.63,72.63,0,0,1-3.39-32.38c.4-3.29.58-10.32,5.38-7C72.94,400.3,76,409,78.28,412.83Z" transform="translate(-1.46 -84.64)" fill="url(#linear-gradient-61)"/><path d="M580.23,470c1.39-8,8.31-13.92,11.14-21.55a38.82,38.82,0,0,0,1.89-8.88,166.35,166.35,0,0,0,.41-36.92c-1.82-18.09-7.37-10.05-12.28,2.24A91.6,91.6,0,0,0,580.23,470Z" transform="translate(-1.46 -84.64)" fill="#1963bc" opacity="0.24" style="isolation:isolate"/><path d="M580.23,470c1.39-8,8.31-13.92,11.14-21.55a38.82,38.82,0,0,0,1.89-8.88,166.35,166.35,0,0,0,.41-36.92c-1.82-18.09-7.37-10.05-12.28,2.24A91.6,91.6,0,0,0,580.23,470Z" transform="translate(-1.46 -84.64)" fill="url(#linear-gradient-62)"/></svg>